HIERARCHY
ROOT mixamorig:Hips
{
	OFFSET 0.000000 104.274902 0.000000
	CHANNELS 6 Xposition Yposition Zposition Xrotation Yrotation Zrotation
	JOINT mixamorig:Spine
	{
		OFFSET 0.000000 10.181549 0.131524
		CHANNELS 6 Xposition Yposition Zposition Xrotation Yrotation Zrotation
		JOINT mixamorig:Spine1
		{
			OFFSET 0.000000 9.893990 -1.470706
			CHANNELS 3 Xrotation Yrotation Zrotation
			JOINT mixamorig:Spine2
			{
				OFFSET 0.000000 9.220787 -1.370636
				CHANNELS 3 Xrotation Yrotation Zrotation
				JOINT mixamorig:Neck
				{
					OFFSET 0.000000 16.740372 -2.049023
					CHANNELS 6 Xposition Yposition Zposition Xrotation Yrotation Zrotation
					JOINT mixamorig:Head
					{
						OFFSET 0.000000 9.617859 1.684975
						CHANNELS 6 Xposition Yposition Zposition Xrotation Yrotation Zrotation
						JOINT mixamorig:HeadTop_End
						{
							OFFSET 0.000000 22.037369 7.501070
							CHANNELS 6 Xposition Yposition Zposition Xrotation Yrotation Zrotation
							End Site
							{
								OFFSET 0.000000 23.106567 -2.828246
							}
						}
					}
				}
				JOINT mixamorig:RightShoulder
				{
					OFFSET -4.570000 11.014862 -2.160841
					CHANNELS 6 Xposition Yposition Zposition Xrotation Yrotation Zrotation
					JOINT mixamorig:RightArm
					{
						OFFSET -10.592869 -0.524796 -2.232105
						CHANNELS 3 Xrotation Yrotation Zrotation
						JOINT mixamorig:RightForeArm
						{
							OFFSET -27.841499 0.000000 0.000000
							CHANNELS 3 Xrotation Yrotation Zrotation
							JOINT mixamorig:RightHand
							{
								OFFSET -28.328800 0.000000 0.000000
								CHANNELS 3 Xrotation Yrotation Zrotation
								JOINT mixamorig:RightHandThumb1
								{
									OFFSET -2.464798 -1.573990 2.681910
									CHANNELS 6 Xposition Yposition Zposition Xrotation Yrotation Zrotation
									JOINT mixamorig:RightHandThumb2
									{
										OFFSET -3.244789 -1.873367 1.873378
										CHANNELS 3 Xrotation Yrotation Zrotation
										JOINT mixamorig:RightHandThumb3
										{
											OFFSET -2.646255 -1.527817 1.527816
											CHANNELS 3 Xrotation Yrotation Zrotation
											JOINT mixamorig:RightHandThumb4
											{
												OFFSET -1.994583 -1.151581 1.151575
												CHANNELS 3 Xrotation Yrotation Zrotation
												End Site
												{
													OFFSET -1.860176 -1.142715 1.365483
												}
											}
										}
									}
								}
								JOINT mixamorig:RightHandIndex1
								{
									OFFSET -9.108299 -0.517883 2.259803
									CHANNELS 6 Xposition Yposition Zposition Xrotation Yrotation Zrotation
									JOINT mixamorig:RightHandIndex2
									{
										OFFSET -3.700005 0.000000 0.000000
										CHANNELS 3 Xrotation Yrotation Zrotation
										JOINT mixamorig:RightHandIndex3
										{
											OFFSET -2.849998 0.000000 0.000000
											CHANNELS 3 Xrotation Yrotation Zrotation
											JOINT mixamorig:RightHandIndex4
											{
												OFFSET -2.772202 0.000000 0.000000
												CHANNELS 3 Xrotation Yrotation Zrotation
												End Site
												{
													OFFSET -2.772202 0.000000 -0.000484
												}
											}
										}
									}
								}
								JOINT mixamorig:RightHandMiddle1
								{
									OFFSET -9.532501 0.000000 0.000000
									CHANNELS 6 Xposition Yposition Zposition Xrotation Yrotation Zrotation
									JOINT mixamorig:RightHandMiddle2
									{
										OFFSET -3.699997 0.000000 0.000000
										CHANNELS 3 Xrotation Yrotation Zrotation
										JOINT mixamorig:RightHandMiddle3
										{
											OFFSET -2.950005 0.000000 0.000000
											CHANNELS 3 Xrotation Yrotation Zrotation
											JOINT mixamorig:RightHandMiddle4
											{
												OFFSET -2.946602 0.000000 0.000000
												CHANNELS 3 Xrotation Yrotation Zrotation
												End Site
												{
													OFFSET -2.946594 0.000000 -0.000982
												}
											}
										}
									}
								}
								JOINT mixamorig:RightHandRing1
								{
									OFFSET -9.103600 -0.043106 -1.865100
									CHANNELS 6 Xposition Yposition Zposition Xrotation Yrotation Zrotation
									JOINT mixamorig:RightHandRing2
									{
										OFFSET -3.379303 0.000000 0.000000
										CHANNELS 3 Xrotation Yrotation Zrotation
										JOINT mixamorig:RightHandRing3
										{
											OFFSET -2.889702 0.000000 0.000000
											CHANNELS 3 Xrotation Yrotation Zrotation
											JOINT mixamorig:RightHandRing4
											{
												OFFSET -2.638794 0.000000 0.000000
												CHANNELS 3 Xrotation Yrotation Zrotation
												End Site
												{
													OFFSET -2.638794 0.000000 0.004219
												}
											}
										}
									}
								}
								JOINT mixamorig:RightHandPinky1
								{
									OFFSET -8.076698 -0.486725 -3.806297
									CHANNELS 6 Xposition Yposition Zposition Xrotation Yrotation Zrotation
									JOINT mixamorig:RightHandPinky2
									{
										OFFSET -3.600006 0.000000 0.000000
										CHANNELS 3 Xrotation Yrotation Zrotation
										JOINT mixamorig:RightHandPinky3
										{
											OFFSET -2.099998 0.000000 0.000000
											CHANNELS 3 Xrotation Yrotation Zrotation
											JOINT mixamorig:RightHandPinky4
											{
												OFFSET -2.115799 0.000000 0.000000
												CHANNELS 3 Xrotation Yrotation Zrotation
												End Site
												{
													OFFSET -2.115799 0.000000 0.000174
												}
											}
										}
									}
								}
							}
						}
					}
				}
				JOINT mixamorig:LeftShoulder
				{
					OFFSET 4.570400 11.014664 -2.160817
					CHANNELS 6 Xposition Yposition Zposition Xrotation Yrotation Zrotation
					JOINT mixamorig:LeftArm
					{
						OFFSET 10.592365 -0.524597 -2.232113
						CHANNELS 3 Xrotation Yrotation Zrotation
						JOINT mixamorig:LeftForeArm
						{
							OFFSET 27.841499 0.000000 0.000000
							CHANNELS 3 Xrotation Yrotation Zrotation
							JOINT mixamorig:LeftHand
							{
								OFFSET 28.328804 0.000000 0.000000
								CHANNELS 3 Xrotation Yrotation Zrotation
								JOINT mixamorig:LeftHandThumb1
								{
									OFFSET 2.466095 -1.576202 2.681697
									CHANNELS 6 Xposition Yposition Zposition Xrotation Yrotation Zrotation
									JOINT mixamorig:LeftHandThumb2
									{
										OFFSET 3.243317 -1.872528 1.872528
										CHANNELS 3 Xrotation Yrotation Zrotation
										JOINT mixamorig:LeftHandThumb3
										{
											OFFSET 2.647881 -1.528763 1.528755
											CHANNELS 3 Xrotation Yrotation Zrotation
											JOINT mixamorig:LeftHandThumb4
											{
												OFFSET 1.998924 -1.154068 1.154079
												CHANNELS 3 Xrotation Yrotation Zrotation
												End Site
												{
													OFFSET 1.884041 -1.149155 1.337651
												}
											}
										}
									}
								}
								JOINT mixamorig:LeftHandIndex1
								{
									OFFSET 9.109299 -0.518005 2.259899
									CHANNELS 6 Xposition Yposition Zposition Xrotation Yrotation Zrotation
									JOINT mixamorig:LeftHandIndex2
									{
										OFFSET 3.699997 0.000000 0.000000
										CHANNELS 3 Xrotation Yrotation Zrotation
										JOINT mixamorig:LeftHandIndex3
										{
											OFFSET 2.849998 0.000000 0.000000
											CHANNELS 3 Xrotation Yrotation Zrotation
											JOINT mixamorig:LeftHandIndex4
											{
												OFFSET 2.774902 0.000000 0.000000
												CHANNELS 3 Xrotation Yrotation Zrotation
												End Site
												{
													OFFSET 2.774902 0.000000 -0.000072
												}
											}
										}
									}
								}
								JOINT mixamorig:LeftHandMiddle1
								{
									OFFSET 9.533394 0.000000 0.000000
									CHANNELS 6 Xposition Yposition Zposition Xrotation Yrotation Zrotation
									JOINT mixamorig:LeftHandMiddle2
									{
										OFFSET 3.700005 0.000000 0.000000
										CHANNELS 3 Xrotation Yrotation Zrotation
										JOINT mixamorig:LeftHandMiddle3
										{
											OFFSET 2.949997 0.000000 0.000000
											CHANNELS 3 Xrotation Yrotation Zrotation
											JOINT mixamorig:LeftHandMiddle4
											{
												OFFSET 2.952904 0.000000 0.000000
												CHANNELS 3 Xrotation Yrotation Zrotation
												End Site
												{
													OFFSET 2.952896 0.000000 0.000165
												}
											}
										}
									}
								}
								JOINT mixamorig:LeftHandRing1
								{
									OFFSET 9.104500 -0.042999 -1.865100
									CHANNELS 6 Xposition Yposition Zposition Xrotation Yrotation Zrotation
									JOINT mixamorig:LeftHandRing2
									{
										OFFSET 3.149994 0.000000 0.000000
										CHANNELS 3 Xrotation Yrotation Zrotation
										JOINT mixamorig:LeftHandRing3
										{
											OFFSET 2.950005 0.000000 0.000000
											CHANNELS 3 Xrotation Yrotation Zrotation
											JOINT mixamorig:LeftHandRing4
											{
												OFFSET 2.644295 0.000000 0.000000
												CHANNELS 3 Xrotation Yrotation Zrotation
												End Site
												{
													OFFSET 2.644302 0.000000 0.000083
												}
											}
										}
									}
								}
								JOINT mixamorig:LeftHandPinky1
								{
									OFFSET 8.077797 -0.486893 -3.806301
									CHANNELS 6 Xposition Yposition Zposition Xrotation Yrotation Zrotation
									JOINT mixamorig:LeftHandPinky2
									{
										OFFSET 3.599998 0.000000 0.000000
										CHANNELS 3 Xrotation Yrotation Zrotation
										JOINT mixamorig:LeftHandPinky3
										{
											OFFSET 2.099998 0.000000 0.000000
											CHANNELS 3 Xrotation Yrotation Zrotation
											JOINT mixamorig:LeftHandPinky4
											{
												OFFSET 2.125504 0.000000 0.000000
												CHANNELS 3 Xrotation Yrotation Zrotation
												End Site
												{
													OFFSET 2.125504 0.000000 -0.001254
												}
											}
										}
									}
								}
							}
						}
					}
				}
			}
		}
	}
	JOINT mixamorig:RightUpLeg
	{
		OFFSET -8.207800 -6.751701 -1.599544
		CHANNELS 6 Xposition Yposition Zposition Xrotation Yrotation Zrotation
		JOINT mixamorig:RightLeg
		{
			OFFSET 0.000000 -44.370155 0.345934
			CHANNELS 3 Xrotation Yrotation Zrotation
			JOINT mixamorig:RightFoot
			{
				OFFSET 0.000000 -44.423664 -3.043536
				CHANNELS 3 Xrotation Yrotation Zrotation
				JOINT mixamorig:RightToeBase
				{
					OFFSET 0.000000 -8.728685 10.710592
					CHANNELS 3 Xrotation Yrotation Zrotation
					JOINT mixamorig:RightToe_End
					{
						OFFSET 0.000000 -0.000664 9.278099
						CHANNELS 3 Xrotation Yrotation Zrotation
						End Site
						{
							OFFSET 0.000000 -0.000664 9.278101
						}
					}
				}
			}
		}
	}
	JOINT mixamorig:LeftUpLeg
	{
		OFFSET 8.207800 -6.751701 -1.599544
		CHANNELS 6 Xposition Yposition Zposition Xrotation Yrotation Zrotation
		JOINT mixamorig:LeftLeg
		{
			OFFSET 0.000000 -44.370049 0.346940
			CHANNELS 3 Xrotation Yrotation Zrotation
			JOINT mixamorig:LeftFoot
			{
				OFFSET 0.000000 -44.423603 -3.044389
				CHANNELS 3 Xrotation Yrotation Zrotation
				JOINT mixamorig:LeftToeBase
				{
					OFFSET 0.000000 -8.728686 10.710592
					CHANNELS 3 Xrotation Yrotation Zrotation
					JOINT mixamorig:LeftToe_End
					{
						OFFSET 0.000000 -0.000680 9.278100
						CHANNELS 3 Xrotation Yrotation Zrotation
						End Site
						{
							OFFSET 0.000000 -0.000680 9.278100
						}
					}
				}
			}
		}
	}
}
MOTION
Frames: 4
Frame Time: 0.033333
0.118146 102.606155 1.243067 -6.107635 -2.846881 -2.787167 -0.000000 10.181555 0.131525 11.831839 5.176050 0.669248 10.997230 1.065137 -0.167195 10.997455 1.058638 -0.192966 -0.000000 16.740381 -2.049022 8.575922 -1.995601 -0.274897 0.000002 9.617830 1.684962 18.316494 -3.691552 4.356033 0.000001 22.037369 7.501073 0.000001 -0.000000 -0.000000 -4.569992 11.014874 -2.160840 -6.567654 8.999427 25.031460 -11.884525 10.226928 55.405101 0.000010 0.059300 -0.000012 -3.109688 3.375973 1.866199 -2.464782 -1.573976 2.681905 -3.142085 1.928899 -18.001372 17.706920 -18.889931 12.889213 10.028930 -26.062431 -2.713505 -0.000001 -0.000004 0.000000 -9.108293 -0.517861 2.259801 -1.315338 3.015275 14.433172 0.617895 -2.320001 29.823727 0.751519 -2.538706 32.975078 0.000001 -0.000002 0.000003 -9.532491 0.000013 -0.000002 -1.124896 0.657001 17.908556 1.041094 -2.936769 39.032014 0.641780 -2.361134 30.408514 0.000000 -0.000002 -0.000002 -9.103597 -0.043101 -1.865105 -0.080750 -2.469901 15.769727 1.477858 -3.404854 46.915862 0.493833 -2.088893 26.599164 -0.000001 0.000004 0.000000 -8.076694 -0.486719 -3.806303 -12.813801 -11.028487 13.057005 1.001232 -2.886969 38.247294 0.626947 -2.335695 30.046450 0.000001 -0.000000 -0.000000 4.570397 11.014682 -2.160822 -6.276706 -10.613655 -21.937456 -10.220087 -16.618631 -56.763281 -0.000010 -3.545936 -0.000000 -4.976823 -2.097092 -6.685935 2.466077 -1.576220 2.681694 27.395824 1.895772 33.982182 11.946923 -2.107141 -12.404499 5.096360 27.924815 1.005453 -0.000001 0.000002 -0.000001 9.109294 -0.518011 2.259899 0.230679 3.626099 -14.860017 0.530626 2.438342 -24.552635 0.861186 3.059473 -31.436898 0.000001 0.000001 0.000001 9.533377 -0.000003 -0.000001 1.288534 7.332774 -16.349313 0.454933 2.265529 -22.708767 1.048903 3.346807 -34.795436 -0.000001 0.000000 -0.000003 9.104495 -0.042988 -1.865099 1.682198 8.380844 -17.302836 1.308126 3.691357 -39.016855 0.780923 2.924314 -29.899413 0.000000 -0.000002 -0.000000 8.077795 -0.486895 -3.806301 0.680482 5.223515 -23.670816 0.713218 2.803418 -28.544173 0.997134 3.271186 -33.898734 0.000000 -0.000003 -0.000000 -8.207801 -6.751707 -1.599542 -6.200977 -5.117887 -1.220823 18.138773 9.997057 -2.462965 -6.981012 11.577399 -0.294144 0.520506 -0.000729 0.268014 0.000000 -0.000000 0.000000 8.207800 -6.751697 -1.599542 -5.868656 9.135194 7.866643 20.486626 -9.966703 3.270950 -10.848006 -4.702795 -5.081890 0.078046 0.000003 -0.000001 -0.000000 0.000001 0.000000 
0.548618 102.551620 1.302258 -6.141700 -4.042803 -2.940038 -0.000001 10.181546 0.131524 11.829327 5.206760 0.565143 10.997236 1.066172 -0.181066 10.997448 1.060264 -0.194503 -0.000000 16.740374 -2.049026 8.565668 -1.860831 -0.288308 -0.000001 9.617837 1.684970 18.334666 -3.475613 3.741072 0.000001 22.037399 7.501051 0.000001 -0.000000 0.000000 -4.569998 11.014871 -2.160847 -6.587843 9.092029 24.996657 -11.813535 10.267354 55.459408 -0.000004 0.491266 -0.000019 -3.206332 3.181196 1.910094 -2.464801 -1.573974 2.681906 -3.142085 1.928899 -18.001372 17.706922 -18.889933 12.889219 10.028931 -26.062431 -2.713508 0.000001 -0.000001 0.000002 -9.108285 -0.517857 2.259802 -1.315337 3.015275 14.433172 0.617894 -2.320001 29.823724 0.751520 -2.538706 32.975078 -0.000000 -0.000000 0.000001 -9.532506 0.000013 -0.000001 -1.124895 0.657000 17.908560 1.041095 -2.936769 39.032018 0.641779 -2.361136 30.408518 -0.000000 -0.000000 0.000000 -9.103601 -0.043093 -1.865102 -0.080750 -2.469902 15.769723 1.477859 -3.404854 46.915862 0.493831 -2.088890 26.599168 0.000001 0.000003 0.000000 -8.076694 -0.486718 -3.806302 -12.813799 -11.028489 13.057007 1.001232 -2.886965 38.247287 0.626948 -2.335693 30.046450 -0.000001 -0.000001 -0.000001 4.570402 11.014652 -2.160820 -6.237890 -10.474531 -21.938696 -10.191740 -16.208264 -56.688480 -0.000009 -3.773613 -0.000002 -5.303343 -2.133275 -6.554618 2.466114 -1.576199 2.681689 27.395624 1.895684 33.982158 11.946924 -2.107137 -12.404500 5.096353 27.924820 1.005454 -0.000001 0.000000 0.000001 9.109306 -0.518009 2.259899 0.230631 3.625995 -14.860082 0.530628 2.438339 -24.552520 0.861181 3.059477 -31.436960 0.000001 -0.000000 0.000001 9.533406 0.000011 -0.000002 1.288482 7.332692 -16.349361 0.454952 2.265517 -22.708678 1.048899 3.346820 -34.795473 -0.000001 0.000001 -0.000001 9.104516 -0.043009 -1.865101 1.682173 8.380758 -17.302855 1.308097 3.691340 -39.016790 0.780935 2.924333 -29.899440 0.000001 0.000002 0.000000 8.077813 -0.486898 -3.806301 0.680426 5.223438 -23.670847 0.713233 2.803416 -28.544085 0.997137 3.271190 -33.898779 0.000000 -0.000002 0.000000 -8.207800 -6.751697 -1.599543 -6.416700 -4.921760 -1.393483 18.239071 9.982393 -2.550353 -7.019376 12.649467 0.009457 0.498521 -0.000836 0.288823 0.000000 -0.000000 0.000000 8.207800 -6.751702 -1.599543 -5.906374 9.455157 7.805205 20.992144 -9.014026 3.103366 -11.243804 -4.770803 -4.842311 0.123841 -0.000001 0.000002 -0.000000 0.000001 0.000000 
1.029682 102.469315 1.368757 -6.168134 -5.418238 -3.161985 0.000000 10.181555 0.131524 11.831804 5.180796 0.496605 10.997118 1.059761 -0.192529 10.997345 1.055649 -0.202678 -0.000000 16.740349 -2.049017 8.546006 -1.693613 -0.299237 0.000002 9.617839 1.684972 18.305650 -3.198360 3.096810 0.000001 22.037369 7.501070 0.000001 -0.000001 0.000000 -4.569996 11.014845 -2.160831 -6.598024 9.154141 24.965885 -11.782099 10.363705 55.551025 -0.000000 0.962747 0.000014 -3.286855 3.039162 1.913535 -2.464790 -1.573980 2.681906 -3.142085 1.928903 -18.001375 17.706919 -18.889933 12.889217 10.028927 -26.062429 -2.713508 -0.000002 -0.000004 0.000000 -9.108293 -0.517859 2.259801 -1.315340 3.015275 14.433170 0.617892 -2.320001 29.823727 0.751518 -2.538707 32.975078 0.000000 0.000001 -0.000001 -9.532479 0.000015 -0.000000 -1.124897 0.657000 17.908560 1.041094 -2.936769 39.032021 0.641780 -2.361136 30.408518 0.000000 -0.000001 -0.000001 -9.103581 -0.043093 -1.865101 -0.080751 -2.469901 15.769725 1.477861 -3.404853 46.915859 0.493832 -2.088890 26.599169 -0.000001 0.000002 0.000001 -8.076694 -0.486720 -3.806304 -12.813802 -11.028489 13.057005 1.001233 -2.886966 38.247290 0.626949 -2.335695 30.046450 0.000001 -0.000000 -0.000001 4.570397 11.014656 -2.160805 -6.188744 -10.311999 -21.921571 -10.038987 -15.914645 -56.586714 -0.000009 -3.967645 -0.000006 -5.646988 -2.137258 -6.474635 2.466085 -1.576206 2.681688 27.395460 1.895615 33.982127 11.946927 -2.107141 -12.404502 5.096352 27.924819 1.005450 0.000002 0.000000 0.000001 9.109288 -0.518009 2.259900 0.230637 3.625897 -14.860116 0.530598 2.438322 -24.552433 0.861189 3.059481 -31.437008 0.000000 0.000000 -0.000001 9.533395 0.000015 -0.000002 1.288466 7.332599 -16.349386 0.454942 2.265518 -22.708593 1.048906 3.346820 -34.795535 0.000001 -0.000004 0.000001 9.104491 -0.042987 -1.865100 1.682142 8.380670 -17.302857 1.308116 3.691350 -39.016756 0.780929 2.924321 -29.899457 0.000001 -0.000002 -0.000000 8.077790 -0.486895 -3.806301 0.680423 5.223356 -23.670881 0.713204 2.803404 -28.544001 0.997138 3.271197 -33.898826 0.000000 -0.000004 -0.000001 -8.207799 -6.751700 -1.599543 -6.716691 -4.683829 -1.523892 18.413664 9.968919 -2.633098 -7.099252 13.847900 0.380364 0.513336 -0.000967 0.309768 -0.000000 0.000001 0.000001 8.207801 -6.751690 -1.599545 -6.033205 9.802068 7.774916 21.680270 -7.907901 2.957298 -11.753104 -4.836827 -4.610672 0.160511 -0.000001 0.000001 0.000000 -0.000000 0.000000 
1.573729 102.359566 1.432580 -6.159210 -7.026733 -3.467547 0.000000 10.181563 0.131524 11.829848 5.107025 0.448851 10.997366 1.045267 -0.203990 10.997589 1.042668 -0.214817 -0.000000 16.740379 -2.049030 8.516552 -1.497299 -0.303712 0.000001 9.617836 1.684985 18.212481 -2.865272 2.419865 0.000000 22.037354 7.501067 -0.000002 -0.000001 -0.000000 -4.569997 11.014861 -2.160848 -6.607134 9.173793 24.985032 -11.739697 10.512598 55.622479 0.000003 1.596330 -0.000015 -3.339527 2.864913 1.912727 -2.464782 -1.573972 2.681907 -3.142084 1.928896 -18.001375 17.706920 -18.889935 12.889213 10.028930 -26.062434 -2.713507 -0.000005 -0.000000 -0.000001 -9.108293 -0.517857 2.259802 -1.315337 3.015275 14.433170 0.617896 -2.320001 29.823727 0.751518 -2.538706 32.975078 0.000000 0.000002 0.000001 -9.532487 0.000013 0.000000 -1.124895 0.657000 17.908561 1.041094 -2.936769 39.032018 0.641779 -2.361136 30.408518 -0.000000 -0.000000 -0.000000 -9.103578 -0.043101 -1.865101 -0.080749 -2.469901 15.769729 1.477859 -3.404854 46.915859 0.493831 -2.088891 26.599163 0.000001 0.000001 -0.000000 -8.076688 -0.486718 -3.806295 -12.813800 -11.028487 13.057007 1.001232 -2.886966 38.247287 0.626949 -2.335694 30.046450 0.000001 0.000000 -0.000001 4.570397 11.014664 -2.160819 -6.150544 -10.204316 -21.880854 -9.820408 -15.678858 -56.459986 -0.000000 -4.088741 -0.000015 -5.984104 -2.108929 -6.454192 2.466096 -1.576219 2.681682 27.395274 1.895526 33.982097 11.946933 -2.107141 -12.404499 5.096354 27.924820 1.005452 0.000001 0.000001 0.000003 9.109291 -0.518016 2.259899 0.230599 3.625779 -14.860017 0.530631 2.438348 -24.552795 0.861175 3.059468 -31.436806 0.000000 -0.000001 0.000001 9.533392 0.000016 -0.000001 1.288444 7.332498 -16.349299 0.454965 2.265543 -22.708933 1.048874 3.346795 -34.795320 0.000001 0.000001 -0.000002 9.104509 -0.043005 -1.865099 1.682117 8.380580 -17.302833 1.308128 3.691355 -39.016960 0.780927 2.924321 -29.899344 -0.000000 0.000001 0.000000 8.077799 -0.486897 -3.806300 0.680382 5.223270 -23.670806 0.713219 2.803429 -28.544300 0.997129 3.271189 -33.898659 -0.000001 0.000001 -0.000000 -8.207799 -6.751713 -1.599543 -7.146388 -4.366008 -1.594123 18.650134 9.951482 -2.727672 -7.204073 15.191743 0.783781 0.559492 -0.001137 0.335552 0.000000 0.000001 0.000000 8.207802 -6.751698 -1.599544 -6.279019 10.154648 7.789332 22.557511 -7.000908 2.781187 -12.355841 -4.494159 -4.272452 0.172926 -0.000002 0.000000 -0.000000 -0.000001 0.000000 
